HIERARCHY
ROOT Hips
{
	OFFSET 0.000000 0.000000 0.000000
	CHANNELS 6 Xposition Yposition Zposition Yrotation Xrotation Zrotation
	JOINT Spine
	{
		OFFSET 0.000000 -0.000000 1.489414
		CHANNELS 6 Xposition Yposition Zposition Yrotation Xrotation Zrotation
		JOINT Spine1
		{
			OFFSET 0.000000 -0.000001 4.064482
			CHANNELS 6 Xposition Yposition Zposition Yrotation Xrotation Zrotation
			JOINT Neck
			{
				OFFSET 0.000000 -0.000001 4.427754
				CHANNELS 6 Xposition Yposition Zposition Yrotation Xrotation Zrotation
				JOINT Head
				{
					OFFSET 0.000000 -0.363272 2.815356
					CHANNELS 6 Xposition Yposition Zposition Yrotation Xrotation Zrotation
					End Site
					{
						OFFSET 0.000000 -0.000001 3.632717
					}
				}
			}
			JOINT LeftShoulder
			{
				OFFSET 0.731535 0.096024 3.575184
				CHANNELS 6 Xposition Yposition Zposition Yrotation Xrotation Zrotation
				JOINT LeftArm
				{
					OFFSET 2.610319 0.000000 0.000000
					CHANNELS 6 Xposition Yposition Zposition Yrotation Xrotation Zrotation
					JOINT LeftForeArm
					{
						OFFSET 5.118421 0.000000 0.000000
						CHANNELS 6 Xposition Yposition Zposition Yrotation Xrotation Zrotation
						JOINT LeftHand
						{
							OFFSET 4.756909 0.000000 0.000000
							CHANNELS 6 Xposition Yposition Zposition Yrotation Xrotation Zrotation
							End Site
							{
								OFFSET 2.724539 0.000000 0.000000
							}
						}
					}
				}
			}
			JOINT RightShoulder
			{
				OFFSET -0.721442 0.096024 3.575184
				CHANNELS 6 Xposition Yposition Zposition Yrotation Xrotation Zrotation
				JOINT RightArm
				{
					OFFSET -2.610319 0.000000 0.000000
					CHANNELS 6 Xposition Yposition Zposition Yrotation Xrotation Zrotation
					JOINT RightForeArm
					{
						OFFSET -5.118422 0.000000 0.000000
						CHANNELS 6 Xposition Yposition Zposition Yrotation Xrotation Zrotation
						JOINT RightHand
						{
							OFFSET -4.756909 0.000000 0.000000
							CHANNELS 6 Xposition Yposition Zposition Yrotation Xrotation Zrotation
							End Site
							{
								OFFSET -2.724539 0.000000 0.000000
							}
						}
					}
				}
			}
		}
	}
	JOINT LeftUpLeg
	{
		OFFSET 1.816359 0.000000 0.000000
		CHANNELS 6 Xposition Yposition Zposition Yrotation Xrotation Zrotation
		JOINT LeftLeg
		{
			OFFSET 0.000000 0.000001 -7.638974
			CHANNELS 6 Xposition Yposition Zposition Yrotation Xrotation Zrotation
			JOINT LeftFoot
			{
				OFFSET 0.000000 0.000001 -8.008609
				CHANNELS 6 Xposition Yposition Zposition Yrotation Xrotation Zrotation
				JOINT LeftToeBase
				{
					OFFSET 0.000000 -2.724539 -1.180634
					CHANNELS 6 Xposition Yposition Zposition Yrotation Xrotation Zrotation
					End Site
					{
						OFFSET 0.000000 -0.726544 0.000000
					}
				}
			}
		}
	}
	JOINT RightUpLeg
	{
		OFFSET -1.816359 0.000000 0.000000
		CHANNELS 6 Xposition Yposition Zposition Yrotation Xrotation Zrotation
		JOINT RightLeg
		{
			OFFSET 0.000000 0.000001 -7.638974
			CHANNELS 6 Xposition Yposition Zposition Yrotation Xrotation Zrotation
			JOINT RightFoot
			{
				OFFSET 0.000000 0.000001 -8.008609
				CHANNELS 6 Xposition Yposition Zposition Yrotation Xrotation Zrotation
				JOINT RightToeBase
				{
					OFFSET 0.000000 -2.724539 -1.180634
					CHANNELS 6 Xposition Yposition Zposition Yrotation Xrotation Zrotation
					End Site
					{
						OFFSET 0.000000 -0.726544 0.000000
					}
				}
			}
		}
	}
}
MOTION
Frames: 9
Frame Time: 0.041667
22.311125 0.904899 16.088011 1.793750 11.835108 206.765850 0.000000 -0.000000 1.489413 -4.795969 -12.776837 -1.146412 0.000000 -0.000001 4.064481 -1.218713 19.729655 -0.793323 -0.000001 -0.000001 4.427757 -5.615957 12.145062 9.069051 -0.000000 -0.363271 2.815354 12.754988 3.957511 12.774137 0.731535 0.096025 3.575186 -17.370283 -8.059838 2.229238 2.610318 -0.000000 0.000000 25.348797 4.006764 -17.517989 5.118420 -0.000001 0.000006 -10.391169 -14.483734 -18.081968 4.756909 0.000001 -0.000002 5.080642 -12.767843 -2.460035 -0.721444 0.096025 3.575187 16.610624 -3.803430 -7.239790 -2.610323 0.000000 0.000001 -11.942168 25.915030 19.976176 -5.118417 -0.000001 0.000003 50.301321 -41.302649 81.135346 -4.756908 -0.000003 0.000003 27.173568 1.746303 6.779079 1.816359 -0.000000 0.000001 5.778649 10.024693 -14.776329 -0.000001 0.000001 -7.638977 1.815373 20.003696 -8.937729 -0.000000 0.000001 -8.008608 -12.230669 -2.583897 8.454860 0.000002 -2.724539 -1.180633 0.000000 0.000001 0.000000 -1.816358 0.000001 0.000001 -14.035328 -75.361630 23.515527 -0.000002 -0.000001 -7.638974 -76.133387 32.502572 -62.714223 -0.000001 0.000001 -8.008609 -5.972892 0.471920 -26.294312 0.000000 -2.724540 -1.180635 0.000001 0.000001 -0.000000 
22.271475 0.924052 16.077518 2.075400 11.463830 207.587057 0.000004 -0.000001 1.489416 -4.612277 -12.919421 -1.284687 0.000001 -0.000002 4.064480 -1.077311 19.564447 -0.808065 -0.000005 -0.000000 4.427751 -5.543102 12.093279 9.079647 -0.000001 -0.363270 2.815358 12.678205 4.028192 12.760283 0.731531 0.096024 3.575182 -17.346075 -8.031814 2.229803 2.610320 0.000001 -0.000001 25.362345 4.035101 -17.600721 5.118420 0.000000 -0.000000 -10.406254 -14.564325 -18.079106 4.756908 -0.000000 -0.000000 5.049540 -12.849617 -2.412759 -0.721446 0.096025 3.575181 16.628475 -3.756534 -7.332627 -2.610323 -0.000001 0.000003 -12.011555 25.651248 19.891922 -5.118420 -0.000002 0.000000 49.941988 -41.214488 81.578345 -4.756909 -0.000000 -0.000000 27.148930 1.843158 6.789462 1.816363 -0.000001 0.000002 6.032975 9.859495 -14.907856 0.000002 0.000001 -7.638973 1.872119 20.064685 -9.000407 0.000002 0.000001 -8.008608 -12.218955 -2.655110 7.963750 0.000000 -2.724539 -1.180633 0.000000 0.000000 0.000000 -1.816358 0.000000 0.000001 -13.915160 -74.641386 23.095926 -0.000001 0.000000 -7.638973 -74.845889 32.490810 -61.584339 0.000003 0.000001 -8.008609 -6.536169 0.590815 -25.945216 0.000000 -2.724537 -1.180633 0.000001 0.000001 -0.000001 
22.230707 0.945750 16.066723 2.356863 11.138803 208.431350 0.000000 0.000000 1.489413 -4.436026 -13.041495 -1.425431 -0.000001 -0.000000 4.064482 -0.930739 19.428335 -0.823154 -0.000005 -0.000000 4.427757 -5.524952 12.120447 9.021211 0.000003 -0.363277 2.815358 12.687746 3.969978 12.692461 0.731534 0.096024 3.575184 -17.362175 -7.988490 2.194234 2.610322 -0.000001 0.000002 25.449415 3.904169 -17.700879 5.118422 0.000000 -0.000002 -10.405495 -14.532228 -18.052661 4.756908 0.000001 0.000001 5.040632 -12.819153 -2.431632 -0.721443 0.096023 3.575186 16.608809 -3.719141 -7.394519 -2.610318 -0.000000 -0.000001 -12.080074 25.397288 19.748082 -5.118420 -0.000000 0.000002 49.625043 -41.149827 81.965822 -4.756908 -0.000005 0.000002 27.155970 1.890037 6.855352 1.816359 0.000001 -0.000002 6.305452 9.751799 -14.863156 0.000001 0.000001 -7.638975 1.792427 20.156605 -9.163302 0.000000 0.000001 -8.008608 -12.233450 -2.739607 7.392453 0.000000 -2.724539 -1.180633 -0.000000 0.000002 0.000000 -1.816358 0.000000 -0.000002 -13.842568 -73.892579 22.734379 0.000002 0.000002 -7.638975 -73.503320 32.523575 -60.647306 0.000000 0.000001 -8.008611 -7.108861 0.784479 -25.485681 -0.000000 -2.724537 -1.180633 0.000002 -0.000001 -0.000001 
22.190073 0.965605 16.053375 2.661126 10.771084 209.256068 0.000001 0.000000 1.489413 -4.209444 -13.145643 -1.536314 0.000002 -0.000000 4.064482 -0.799547 19.268341 -0.828774 -0.000002 -0.000001 4.427752 -5.510101 12.108385 8.977440 0.000000 -0.363273 2.815355 12.700832 3.931453 12.641325 0.731534 0.096024 3.575183 -17.340585 -7.999366 2.122673 2.610320 0.000001 -0.000002 25.469381 3.783030 -17.747632 5.118422 0.000000 0.000001 -10.366132 -14.472742 -18.040119 4.756910 -0.000001 0.000001 5.041631 -12.766653 -2.427785 -0.721442 0.096024 3.575182 16.623827 -3.715297 -7.490557 -2.610319 -0.000001 -0.000002 -12.181400 25.223337 19.609441 -5.118416 -0.000003 -0.000001 49.376646 -41.109566 82.304353 -4.756907 0.000000 0.000001 27.150721 1.963349 6.833424 1.816360 0.000000 -0.000001 6.578284 9.623100 -14.916807 -0.000002 0.000001 -7.638975 1.837773 20.211103 -8.964171 0.000001 0.000001 -8.008608 -12.284861 -2.865817 6.577521 0.000002 -2.724539 -1.180634 0.000000 -0.000001 0.000000 -1.816360 0.000001 -0.000001 -13.866686 -73.173442 22.502646 0.000000 -0.000000 -7.638973 -72.159460 32.652939 -59.594138 -0.000001 0.000002 -8.008606 -7.403432 1.014489 -25.072557 0.000001 -2.724538 -1.180635 0.000006 0.000000 -0.000001 
22.148018 0.986391 16.041521 2.915066 10.445975 210.117574 0.000001 -0.000000 1.489418 -4.071902 -13.270498 -1.692753 0.000000 0.000000 4.064482 -0.615581 19.175206 -0.845116 -0.000001 -0.000002 4.427753 -5.466672 12.036423 8.974825 0.000000 -0.363272 2.815356 12.640239 3.931548 12.615027 0.731534 0.096023 3.575182 -17.356974 -7.953205 2.127852 2.610323 0.000002 0.000001 25.481436 3.878826 -17.865314 5.118422 0.000000 0.000002 -10.441011 -14.570709 -18.012819 4.756910 -0.000001 -0.000001 5.017968 -12.858588 -2.382462 -0.721443 0.096023 3.575184 16.636246 -3.707477 -7.548477 -2.610320 -0.000001 -0.000002 -12.342796 24.938050 19.429008 -5.118422 -0.000002 -0.000001 49.025636 -41.024179 82.759394 -4.756906 -0.000001 0.000004 27.231966 2.068168 6.827749 1.816361 -0.000000 0.000001 6.747634 9.592978 -14.990664 -0.000001 0.000001 -7.638975 1.883472 20.221745 -9.118519 0.000001 0.000001 -8.008607 -12.418193 -3.029747 6.079813 0.000002 -2.724538 -1.180634 0.000000 0.000001 -0.000001 -1.816357 0.000000 0.000003 -13.693339 -72.383777 22.079833 0.000004 -0.000001 -7.638977 -70.766948 32.697266 -58.637809 -0.000000 0.000002 -8.008608 -7.707162 1.241563 -24.595405 0.000000 -2.724539 -1.180632 -0.000001 0.000004 -0.000002 
22.105839 1.011554 16.029015 3.159720 10.143646 211.021140 0.000001 0.000001 1.489416 -3.840521 -13.394563 -1.874084 -0.000001 -0.000001 4.064483 -0.578865 19.096557 -0.891020 -0.000003 0.000001 4.427755 -5.419118 11.982633 8.940803 0.000002 -0.363274 2.815358 12.606426 3.906575 12.558046 0.731534 0.096025 3.575187 -17.328280 -7.958388 2.083611 2.610319 0.000001 -0.000003 25.519113 3.837337 -17.948585 5.118422 -0.000002 0.000002 -10.447799 -14.567911 -18.010801 4.756909 0.000000 0.000001 4.973706 -12.855577 -2.388379 -0.721442 0.096025 3.575183 16.631787 -3.626677 -7.681402 -2.610318 0.000000 0.000001 -12.356463 24.779914 19.424276 -5.118422 0.000000 0.000001 48.549480 -41.186860 83.148981 -4.756908 -0.000001 0.000002 26.692767 1.558596 7.240553 1.816359 0.000001 0.000001 6.923627 9.574915 -15.120340 -0.000001 0.000002 -7.638975 1.887415 20.216969 -9.159520 -0.000000 0.000001 -8.008609 -12.465634 -3.168302 5.452508 0.000001 -2.724539 -1.180633 -0.000000 0.000003 -0.000000 -1.816358 -0.000000 0.000000 -13.577972 -71.561647 21.685232 -0.000001 0.000002 -7.638975 -69.338052 32.943481 -57.540519 0.000001 0.000000 -8.008610 -8.162012 1.315561 -23.962716 -0.000000 -2.724537 -1.180635 0.000003 -0.000002 -0.000006 
22.062969 1.031385 16.014555 3.393115 9.791928 211.857291 0.000001 -0.000000 1.489412 -3.694589 -13.527659 -1.995560 0.000000 -0.000001 4.064482 -0.399896 19.016013 -0.896535 0.000001 -0.000001 4.427753 -5.433222 11.922343 8.902245 0.000003 -0.363274 2.815352 12.642330 3.847809 12.518406 0.731534 0.096024 3.575186 -17.340728 -7.930234 2.038433 2.610318 -0.000000 -0.000002 25.559410 3.711154 -18.034619 5.118422 0.000000 0.000006 -10.454068 -14.529214 -18.012720 4.756908 0.000000 0.000000 4.995333 -12.813727 -2.417783 -0.721443 0.096024 3.575181 16.624406 -3.590112 -7.765634 -2.610317 -0.000001 -0.000001 -12.521104 24.421374 19.277569 -5.118421 0.000001 0.000004 48.257885 -41.040568 83.552522 -4.756908 -0.000001 0.000002 26.822062 1.776214 7.171624 1.816357 0.000001 -0.000001 7.138105 9.483531 -15.126057 0.000002 0.000002 -7.638975 1.892028 20.267531 -9.497783 0.000002 0.000001 -8.008610 -12.567834 -3.271569 5.094959 0.000002 -2.724538 -1.180634 0.000000 -0.000001 0.000000 -1.816359 0.000000 -0.000003 -13.679446 -70.788914 21.496673 0.000000 0.000001 -7.638976 -67.789935 33.192015 -56.436931 0.000002 0.000002 -8.008607 -8.505092 1.533627 -23.588548 -0.000001 -2.724538 -1.180631 0.000003 0.000003 -0.000002 
22.021000 1.050052 16.001390 3.613109 9.441093 212.710696 -0.000001 -0.000001 1.489412 -3.524669 -13.614590 -2.132891 -0.000002 -0.000000 4.064477 -0.278197 18.880829 -0.915381 -0.000001 -0.000000 4.427751 -5.373470 11.882504 8.861533 0.000003 -0.363273 2.815358 12.589831 3.752041 12.441800 0.731536 0.096023 3.575182 -17.335018 -7.938752 1.992158 2.610319 -0.000000 0.000002 25.555286 3.882128 -18.074146 5.118419 0.000000 0.000002 -10.535769 -14.640125 -18.037628 4.756911 0.000000 0.000001 4.946188 -12.914098 -2.355844 -0.721441 0.096023 3.575181 16.658159 -3.529395 -7.849440 -2.610317 0.000000 -0.000002 -12.645757 24.237119 19.177095 -5.118419 -0.000001 0.000001 46.930571 -41.364524 84.644383 -4.756909 -0.000003 0.000004 25.520362 0.482915 8.434030 1.816356 -0.000000 -0.000003 7.374401 9.386429 -15.288277 -0.000001 0.000001 -7.638973 1.894835 20.333021 -9.586406 0.000002 0.000002 -8.008608 -12.684985 -3.364464 4.640199 0.000000 -2.724538 -1.180635 0.000000 -0.000002 0.000000 -1.816360 -0.000002 -0.000003 -13.731970 -69.986599 21.336268 -0.000003 0.000001 -7.638973 -66.215542 33.411117 -55.511140 0.000001 0.000001 -8.008612 -8.692120 1.771525 -22.909884 -0.000000 -2.724540 -1.180632 0.000001 -0.000000 -0.000000 
21.977173 1.068578 15.986359 3.822060 9.063321 213.547490 -0.000001 0.000002 1.489412 -3.348312 -13.751184 -2.245530 -0.000001 -0.000001 4.064484 -0.147967 18.796809 -0.925308 -0.000000 0.000000 4.427754 -5.341905 11.785986 8.835004 0.000000 -0.363273 2.815358 12.539361 3.735570 12.392705 0.731534 0.096024 3.575189 -17.345173 -7.928655 1.936550 2.610319 0.000002 -0.000002 25.606272 3.820381 -18.155833 5.118422 0.000001 -0.000000 -10.544207 -14.634616 -18.061681 4.756910 -0.000000 0.000001 4.880459 -12.904850 -2.390721 -0.721442 0.096025 3.575184 16.611937 -3.607641 -7.824404 -2.610319 0.000000 -0.000003 -12.957116 23.361962 18.798267 -5.118418 -0.000002 0.000004 45.786159 -40.852915 85.966325 -4.756911 -0.000001 0.000002 25.646331 0.919322 8.409931 1.816359 0.000001 -0.000001 7.650231 9.290181 -15.333244 -0.000002 0.000002 -7.638973 1.821862 20.390705 -9.847014 -0.000001 0.000001 -8.008608 -12.775533 -3.440015 4.301509 0.000000 -2.724539 -1.180634 -0.000000 0.000002 0.000001 -1.816357 0.000000 -0.000001 -13.804095 -69.223223 21.245957 -0.000002 0.000001 -7.638973 -64.556236 33.650655 -54.327475 0.000001 0.000002 -8.008608 -9.263591 1.976291 -22.505791 -0.000001 -2.724539 -1.180632 -0.000004 0.000000 0.000001 
